<svg width="500" height="450" viewBox="0 0 500 450" fill="none" xmlns="http://www.w3.org/2000/svg">
<g clip-path="url(#clip0_648_1817)">
<path d="M83.3289 210.655C86.3811 212.869 88.7429 218.687 89.092 222.163C89.4832 226.057 88.7766 228.263 87.2573 231.785L87.042 232.073C85.2244 231.232 80.8005 232.69 78.6592 231.746C87.8899 225.87 86.2383 219.121 83.3289 210.655Z" fill="#9996A1"/>
<path d="M167.988 174.218C172.249 166.228 174.795 160.781 182.954 154.695C189.31 149.953 196.047 148.147 204.306 148.748C204.978 148.796 205.804 148.918 206.237 149.409C204.918 149.682 203.506 149.656 202.114 149.89C199.127 150.393 196.491 151.206 193.657 152.146C192.923 153.29 190.961 154.431 189.705 155.331C198.345 153.104 202.053 155.693 208.547 160.578C209.535 161.321 210.983 161.966 211.744 162.888L212.567 163.054L212.886 163.123C216.45 163.855 219.414 163.281 222.972 162.751C223.952 165.446 219.629 166.959 217.594 167.699C213.196 168.629 212.092 169.367 209.289 172.357C206.096 175.763 201.559 178.027 196.701 178.687C188.449 180.355 176.407 177.008 170.137 183.188C169.76 183.561 169.751 184.513 170.006 184.944C171.472 187.435 175.295 188.739 178.158 188.992L179.401 189.551C175.812 190.014 173.306 189.405 170.075 187.943C174.175 192.848 177.957 194.878 184.337 196.992C174.758 196.799 172.459 194.25 164.518 191.226C167.705 195.249 173.019 198.145 178.288 199.363C177.358 199.92 177.367 199.857 176.09 199.813C168.099 199.044 157.418 194.387 155.88 186.535C155.439 184.281 155.846 182.482 156.491 180.335C160.667 171.448 162.777 168.049 169.363 160.533C167.85 165.779 167.249 168.796 167.988 174.218Z" fill="#222222"/>
<path d="M176.643 168.594C176.817 166.945 177.302 165.335 178.077 163.832C181.093 157.872 187.091 154.396 193.657 152.146C192.923 153.29 190.961 154.432 189.704 155.331C198.345 153.104 202.052 155.693 208.547 160.578C209.534 161.321 210.982 161.966 211.743 162.889L211.353 162.821C203.358 161.397 195.867 155.563 187.278 160.817C184.705 162.391 182.659 164.247 180.56 166.319C180.118 166.754 179.003 168.125 178.69 168.398C178.058 168.598 177.684 168.705 177.02 168.858L176.643 168.594Z" fill="#B2B0B6"/>
<path d="M176.643 168.593L177.02 168.858C177.684 168.705 178.059 168.598 178.691 168.397C177.953 169.451 177.192 170.732 176.502 171.834C176.497 170.64 176.48 169.793 176.643 168.593Z" fill="#9996A1"/>
<path d="M178.158 188.992C175.295 188.739 171.472 187.435 170.006 184.945C169.752 184.513 169.76 183.561 170.138 183.188C176.407 177.008 188.449 180.355 196.701 178.688C201.559 178.027 206.096 175.763 209.289 172.358C212.093 169.367 213.196 168.629 217.594 167.699C215.981 169.64 214.44 171.568 212.891 173.537C211.726 175.018 210.161 177.757 208.847 178.927C201.158 185.768 187.706 185.604 177.948 185.442C183.969 186.801 189.041 187.761 195.285 187.971C190.439 191.224 184.653 191.362 178.753 191.492C184.29 193.74 191.26 193.696 197.209 193.255C192.277 195.978 188.965 196.828 183.314 197.93C187.07 199.133 189.53 199.208 193.542 198.929C189.449 200.144 183.342 200.905 179.148 200.216C178.141 200.127 177.045 200.082 176.09 199.813C177.367 199.857 177.359 199.92 178.288 199.364C173.019 198.145 167.705 195.249 164.519 191.226C172.459 194.251 174.758 196.799 184.337 196.992C177.957 194.878 174.175 192.848 170.075 187.944C173.306 189.406 175.813 190.014 179.401 189.551L178.158 188.992Z" fill="#807D8D"/>
<path d="M178.288 199.363C179.847 199.557 180.987 199.727 182.521 200.035L179.148 200.216C178.141 200.127 177.045 200.082 176.09 199.813C177.367 199.857 177.359 199.92 178.288 199.363Z" fill="#646464"/>
<path d="M178.158 188.992C180.114 188.934 181.6 188.802 183.551 188.598C182.189 188.962 180.801 189.391 179.401 189.551L178.158 188.992Z" fill="#646464"/>
<path d="M78.6591 231.746C80.8004 232.69 85.2242 231.231 87.0419 232.073C84.82 236.533 82.3453 239.106 77.1586 240.849C71.5448 242.732 63.4625 243.165 60.3856 248.467C58.6827 251.4 61.6119 253.898 64.1947 255.281C60.5463 256.17 56.7394 257.225 53.4847 258.981C52.0888 255.707 49.5609 248.744 50.6644 245.36C52.5402 239.612 64.9764 237.217 70.5182 235.16C73.8309 233.93 75.5126 233.352 78.6591 231.746Z" fill="#807D8D"/>
<path d="M124.777 253.035C126.961 253.56 135.463 256.019 137.074 257.379C137.435 258.539 146.081 265.889 147.686 267.394C139.785 264.013 133.835 264.384 125.251 265.667C132.269 266.355 137.25 267.559 142.832 271.787C130.761 268.798 124.391 268.748 112.155 271.648C118.138 272.674 120.782 272.949 125.882 276.561C118.077 275.043 110.344 274.854 102.463 276.073C101.033 276.295 97.9836 276.548 97.271 277.812C97.7473 280.165 105.976 281.929 108.233 282.452C104.338 283.197 89.3718 284.845 85.6348 284.129C89.4429 284.089 93.825 282.287 97.9827 281.626C95.2654 278.526 92.1174 277.33 88.0442 276.269C96.8318 273.986 101.447 273.755 110.466 274.509C105.874 272.252 104.836 271.859 99.6316 271.363C109.68 269.299 117.324 268.442 127.659 268.256C122.115 266.342 117.953 265.166 112.036 264.613C120.312 263.138 131.565 262.558 139.931 263.433C136.549 260.71 128.712 255.722 124.777 253.035Z" fill="#807D8D"/>
<path d="M108.547 256.157L108.908 256.401C108.665 256.753 108.295 257.183 107.777 257.183C98.4934 257.168 49.9841 266.535 74.3633 279.912C75.8484 280.727 77.4104 281.421 79.0308 281.99C80.4226 282.469 84.4695 283.557 85.2712 284.126C74.3289 284.443 64.9487 282.652 59.0215 273.814C60.4221 272.195 61.6519 270.202 63.042 268.646C71.6399 258.981 85.6233 256.313 98.7158 256.058C100.771 256.019 106.906 256.555 108.547 256.157Z" fill="#807D8D"/>
<path d="M256.128 138.472C256.145 141.592 256.35 146.498 256.15 149.472C255.002 146.941 256.816 143.578 255.461 142.124L256.128 138.472Z" fill="#9996A1"/>
<path d="M208.318 196.811L209.218 197.239C207.674 197.423 206.132 197.621 204.592 197.834C205.975 197.394 206.897 197.141 208.318 196.811Z" fill="#646464"/>
<path d="M371.711 268.554C373.25 283.456 368.65 296.216 360.969 309.201C359.351 311.939 357.126 315.459 355.166 317.971C357.192 311.361 359.209 304.508 361.399 297.947C355.493 306.13 332.021 329.823 323.127 334.74C330.796 326.685 336.309 318.065 339.58 307.841C340.828 303.95 341.702 300.566 341.016 296.525L340.83 296.42C339.878 298.815 339.712 300.441 338.232 303.117C331.118 315.973 316.079 333.103 303.892 342.233C306.196 339.188 308.743 336.324 311.062 333.305C318.372 323.787 325.535 311.917 327.329 300.384C325.569 303.601 323.962 305.741 321.296 308.441C323.101 301.247 323.862 296.09 323.396 288.571C323.257 286.339 322.766 283.228 322.705 281.274C323.193 278.793 322.439 279.881 323.882 276.662C325.735 282.907 325.933 291.309 325.842 297.727C328.054 295.756 328.782 294.372 330.176 291.874C331.948 296.75 332.07 300.008 330.388 304.875C337.012 300.432 339.492 293.779 340.957 286.783C343.105 294.651 344.46 300.573 345.056 308.736C348.591 305.851 350.139 302.818 351.665 298.826C352.268 300.399 352.495 301.474 352.864 303.113C358.76 297.411 369.355 282.149 369.585 274.485C370.347 272.522 371.057 270.545 371.711 268.554Z" fill="#D9D9D9"/>
<path d="M350.442 269.31C351.509 270.417 353.135 272.079 353.87 273.34L353.481 273.839C355.242 281.733 355.757 285.831 352.019 293.188C351.182 291.894 350.847 291.223 349.653 290.169C351.489 282.608 351.084 276.82 350.442 269.31Z" fill="#9996A1"/>
<path d="M393.508 99.7227C397.581 104.594 401.311 113.174 403.452 119.002C403.97 120.412 404.758 124.561 405.435 125.497C404.355 127.866 401.87 131.36 400.349 133.537C399.629 125.843 398.672 118.121 398.086 110.424C396.462 114.659 394.985 119.143 393.364 123.445C393.618 115.659 393.364 107.57 393.508 99.7227Z" fill="#B2B0B6"/>
<path d="M147.573 271.644L149.173 270.71C152.127 272.23 154.944 274.63 155.576 277.792C157.63 288.077 155.553 303.194 148.584 311.755C147.481 313.104 146.64 314.113 145.408 315.358C142.354 318.575 138.319 321.1 134.137 322.985C134.62 318.791 135.613 313.486 136.331 309.287C135.303 310.507 131.547 318.979 130.651 320.946L130.603 313.141L129.858 313.293C128.717 317.758 126.078 324.679 123.03 328.357C120.059 328.287 120.017 327.316 119.374 325.079C119.367 324.152 120.201 320.667 120.344 319.338C121.052 312.719 120.594 307.859 119.085 301.419C118.341 304.344 117.673 309.731 117.177 312.851C116.6 309.536 116.056 307.6 114.849 304.405C111.895 297.809 107.002 292.924 100.896 288.539C108.59 287.987 114.923 285.708 123.158 284.913C121.157 283.797 119.146 282.694 117.124 281.606C127.76 280.229 134.021 279.923 144.745 282.147C141.657 279.873 137.68 277.497 134.347 275.144C139.658 274.828 142.694 275.359 147.779 276.783C145.212 274.773 144.581 274.546 141.34 273.358C144.753 273.232 146.287 273.391 149.548 274.204C148.881 273.184 148.359 272.571 147.573 271.644Z" fill="#D9D9D9"/>
<path d="M129.755 289.839C130.721 290.779 131.386 291.359 132.146 292.458C131.739 292.735 131.87 292.858 131.273 293.161L131.045 292.788C130.836 291.729 130.27 290.821 129.755 289.839Z" fill="#D9D9D9"/>
<path d="M141.406 300.271C146.511 306.27 145.678 308.419 145.408 315.358C142.354 318.575 138.319 321.099 134.137 322.985C134.62 318.79 135.613 313.486 136.331 309.287C138.737 305.705 140.053 304.42 141.406 300.271Z" fill="#F0F0F0"/>
<path d="M129.857 313.292C129.993 312.726 130.162 311.664 130.503 311.267C130.657 312.113 130.648 312.275 130.603 313.141L129.857 313.292Z" fill="#646464"/>
<path d="M290.215 28.3979C292.764 29.1635 295.82 30.6809 298.11 32.0184C297.307 32.7716 293.398 32.7187 291.904 32.7964C290.767 32.0256 289.641 31.2412 288.528 30.4429C289.084 29.4109 289.319 29.2582 290.215 28.3979Z" fill="#F0F0F0"/>
<path d="M338.462 208.294C347.315 210.17 348.875 206.03 355.728 213.904C359.89 218.855 365.01 225.466 369.346 230.007C376.35 236.782 379.021 239.117 388.037 243.483C377.393 243.316 371.282 241.831 362.476 236.133L364.71 240.264C362.046 239.047 359.397 237.797 356.77 236.516C360.181 241.04 363.33 244.026 367.708 247.733C366.558 247.432 365.152 247.032 364.011 246.783C367.002 248.798 371.526 250.725 374.739 252.727C367.688 251.846 365.122 250.787 358.98 247.972C358.941 248.08 358.904 248.188 358.865 248.295C360.559 249.616 364.607 252.747 365.874 254.228C357.359 253.004 351.204 250.402 345.696 244.193C340.999 239.719 338.101 232.345 336.336 226.511C335.113 221.926 334.519 217.763 333.816 213.108C333.531 211.886 332.984 210.369 333.65 209.275C335.301 208.717 337.547 212.328 338.345 213.517C339.778 215.239 341.49 217.498 342.991 219.084C342.652 217.131 342.393 215.938 341.736 214.038C340.857 211.95 339.751 210.188 338.462 208.294Z" fill="#9996A1"/>
<path d="M338.462 208.294C347.315 210.17 348.875 206.03 355.728 213.904C359.89 218.855 365.01 225.466 369.346 230.007C368.389 230.355 366.07 230.313 364.907 230.315C354.842 230.333 345.977 228.863 336.336 226.511C335.113 221.926 334.519 217.763 333.816 213.108C333.531 211.886 332.984 210.369 333.65 209.275C335.301 208.717 337.547 212.328 338.345 213.517C339.778 215.239 341.49 217.498 342.991 219.084C342.652 217.131 342.393 215.938 341.736 214.038C340.857 211.95 339.751 210.188 338.462 208.294Z" fill="#D9D9D9"/>
<path d="M338.462 208.294C347.314 210.17 348.875 206.03 355.728 213.904C349.67 214.446 346.772 213.875 341.736 214.038C340.857 211.95 339.751 210.188 338.462 208.294Z" fill="#F0F0F0"/>
<path d="M333.816 213.108C333.531 211.886 332.984 210.369 333.65 209.276C335.301 208.717 337.547 212.328 338.345 213.517C337.158 213.677 335.098 213.29 333.816 213.108Z" fill="#F0F0F0"/>
<path d="M345.696 244.193C348.069 244.72 357.593 246.753 358.98 247.972C358.94 248.08 358.904 248.188 358.865 248.295C360.559 249.616 364.607 252.747 365.874 254.228C357.358 253.004 351.204 250.402 345.696 244.193Z" fill="#807D8D"/>
<path d="M410.715 185.55C425.366 182.489 430.652 177.597 446.816 181.993C448.75 182.61 450.227 183.19 452.039 184.08C449.985 184.947 445.198 187.109 443.279 187.714C442.439 188.054 441.812 188.28 441.045 188.734L440.994 188.965L441.775 189.346C441.79 190.183 439.382 193.011 438.723 193.832C427.861 193.023 418.782 194.443 407.81 193.505C416.699 195.755 422.844 198.279 429.736 204.052C429.08 204.703 428.628 205.175 427.888 205.742C425.466 205.511 424.666 205.522 422.229 205.681L425.972 209.051C422.71 207.848 420.842 207.445 417.256 207.383L422.058 210.92C421.252 211.528 419.253 213.101 418.447 213.527C410.999 209.19 399.424 205.116 390.647 203.637C387.915 203.162 383.223 202.132 380.706 202.085C385.063 199.984 388.386 198.236 391.213 194.432C393.608 191.211 393.206 188.763 397.036 186.595C402.529 186.567 405.354 186.343 410.715 185.55Z" fill="#D9D9D9"/>
<path d="M397.036 186.595C402.529 186.567 405.354 186.342 410.715 185.549L411.169 185.815C411.018 186.515 409.89 187.88 409.373 188.484C404.766 193.859 399.473 198.289 393.252 202.095C392.39 202.619 391.523 203.132 390.647 203.636C387.915 203.162 383.223 202.131 380.706 202.085C385.063 199.984 388.386 198.235 391.213 194.432C393.608 191.21 393.206 188.763 397.036 186.595Z" fill="#F0F0F0"/>
<path d="M446.816 181.993C448.75 182.61 450.227 183.19 452.039 184.08C449.985 184.947 445.198 187.109 443.279 187.714C444.343 185.888 445.952 183.853 446.816 181.993Z" fill="#9996A1"/>
<path d="M254.304 70.5479C257.778 74.0103 261.423 78.153 264.746 81.8044C260.022 78.7452 255.081 76.8386 249.26 76.3049C254.233 81.1769 261.602 87.8236 266.143 92.7191C261.426 91.1362 256.689 89.599 251.936 88.108L268.052 101.603C270.505 103.656 273.462 105.961 275.781 108.047C256.248 99.3279 239.51 95.9805 217.658 96.255C218.611 95.0346 221.537 92.5478 222.81 91.3975C229.723 85.1489 236.881 79.7981 245.193 75.1109C247.251 73.9514 252.866 71.5658 254.304 70.5479Z" fill="#B2B0B6"/>
<path d="M364.702 206.48C371.567 205.348 375.52 205.524 382.158 207.452C392.041 210.673 398.643 215.107 407.261 220.307C405.796 221.487 402.136 222.856 400.288 223.77C398.45 223.543 395.962 223.308 394.189 222.981L396.453 225.007C390.923 227.329 383.833 228.494 377.878 229.45C371.501 225.525 366.038 219.071 361.843 213.263C360.713 211.707 359.685 209.967 358.765 208.303C361.582 208.913 365.769 210.625 369.128 211.491L371.338 212.15L371.526 212.021L370.537 211.181C368.584 209.623 366.638 208.056 364.702 206.48Z" fill="#D9D9D9"/>
<path d="M364.702 206.48C371.567 205.348 375.52 205.524 382.158 207.452C380.632 208.892 373.008 211.114 370.537 211.181C368.584 209.623 366.638 208.056 364.702 206.48Z" fill="#F0F0F0"/>
<path d="M310.305 200.727C314.05 201.01 321.751 201.985 324.414 204.796C325.557 206.003 325.82 209.464 326.03 211.138C326.692 215.03 327.544 219.491 328.516 223.308C330.149 229.234 331.577 235.18 333.274 241.104C328.169 238.823 324.385 236.413 320.798 232.337C321.641 234.855 322.366 236.949 323.396 239.416C322.222 239.278 317.432 237.88 316.235 237.524C312.129 231.682 311.174 222.355 311.03 215.584C310.825 212.2 310.667 208.815 310.552 205.428C310.42 203.798 310.295 202.36 310.305 200.727Z" fill="#9996A1"/>
<path d="M310.305 200.727C314.05 201.01 321.751 201.985 324.414 204.796C325.557 206.003 325.82 209.464 326.03 211.138C326.692 215.03 327.544 219.491 328.516 223.308L328.269 223.644C325.706 223.594 313.804 216.915 311.03 215.584C310.825 212.2 310.667 208.815 310.552 205.428C310.42 203.798 310.295 202.36 310.305 200.727Z" fill="#D9D9D9"/>
<path d="M310.305 200.727C314.05 201.01 321.751 201.985 324.414 204.796C325.557 206.003 325.82 209.464 326.03 211.138C321.25 210.328 314.976 207.369 310.552 205.428C310.42 203.798 310.295 202.36 310.305 200.727Z" fill="#F0F0F0"/>
<path d="M151.405 81.1288C157.421 79.3956 165.231 78.9375 171.579 78.4761C173.962 78.3029 176.751 78.3253 179.079 78.0674C168.029 84.1237 162.01 86.3794 152.187 94.8736C158.869 92.9844 163.577 92.8387 169.859 91.3661C158.022 97.8074 151.035 102.075 140.187 109.818L132.496 115.774C133.292 107.652 137.421 102.386 143.996 96.9243C144.239 96.6218 148.149 93.4948 148.776 92.9774C147.883 93.2533 146.946 93.6155 146.064 93.9352C147.817 89.7948 149.861 85.7629 151.594 81.6307C151.531 81.4635 151.468 81.296 151.405 81.1288Z" fill="#D9D9D9"/>
<path d="M143.996 96.9243C144.093 97.1014 144.19 97.2783 144.286 97.4554C143.318 101.245 140.987 106.092 140.187 109.818L132.496 115.774C133.292 107.652 137.421 102.386 143.996 96.9243Z" fill="#F0F0F0"/>
<path d="M293.843 193.862C293.892 192.768 293.843 191.335 294.268 190.357C296.775 189.006 306.138 195.327 305.928 198.591C306.443 201.666 305.857 208.642 305.457 211.942C305.09 217.474 304.841 220.561 305.098 226.189L302.214 222.57C302.202 225.103 302.602 228.507 302.773 231.132C291.394 222.403 291.103 214.501 293.096 202.141C293.401 199.386 293.647 196.626 293.843 193.862Z" fill="#9996A1"/>
<path d="M293.843 193.862C293.892 192.768 293.843 191.335 294.268 190.357C296.775 189.006 306.138 195.327 305.928 198.591C306.443 201.666 305.857 208.642 305.457 211.942C300.547 208.506 297.6 205.963 293.096 202.141C293.401 199.386 293.647 196.626 293.843 193.862Z" fill="#D9D9D9"/>
<path d="M293.843 193.862C293.892 192.768 293.843 191.335 294.268 190.357C296.775 189.006 306.138 195.327 305.928 198.591C305.786 199.644 305.862 201.602 305.872 202.742C302.793 200.772 296.851 197.517 294.08 194.888C293.987 194.483 293.906 194.141 293.843 193.862Z" fill="#F0F0F0"/>
<path d="M320.142 99.849C322.573 99.6829 324.839 99.7567 327.258 99.9562C317.739 109.317 306.775 114.695 293.762 119.221L291.809 119.889C290.488 116.921 288.994 113.862 287.61 110.906C298.425 103.648 306.638 100.635 320.142 99.849Z" fill="#F0F0F0"/>
<path d="M332.827 185.079C338.296 189.945 339.736 188.761 346.812 188.983C354.163 189.214 361.667 190.813 368.384 193.519C369.187 193.888 369.768 194.171 370.535 194.594C356.768 201.166 344.548 202.496 331.038 194.249C334.241 194.778 345.41 196.24 348.472 195.674L348.56 195.43C348.093 195.316 347.629 195.192 347.168 195.059C341.76 193.476 335.505 189.77 332.827 185.079Z" fill="#E4E3E3"/>
<path d="M368.384 193.519C369.187 193.888 369.768 194.171 370.535 194.594C356.768 201.166 344.548 202.496 331.038 194.249C334.241 194.778 345.41 196.24 348.472 195.674L348.56 195.43C349.993 195.159 354.065 195.519 355.774 195.434C358.125 195.317 366.924 194.885 368.384 193.519Z" fill="#9996A1"/>
<path d="M316.56 59.2822C323.311 59.4914 330.291 60.6382 336.846 62.0354C337.893 62.2586 339.829 62.8675 340.762 62.6425C344.377 70.8787 346.631 82.6253 347.012 91.4122C342.639 79.0732 338.826 67.8593 325.955 60.4617C325.3 65.936 324.868 71.8598 324.348 77.3787C322.104 70.0537 320.222 66.0259 316.56 59.2822Z" fill="#B2B0B6"/>
<path d="M348.379 65.3315C354.341 67.1054 361.636 70.0825 366.716 73.3617C366.267 81.577 365.22 89.5289 364.346 97.705C360.364 83.5697 357.708 77.5668 348.379 65.3315Z" fill="#B2B0B6"/>
<path d="M396.453 225.007C399.763 227.674 401.436 228.474 405.146 230.46C400.894 230.513 396.75 230.702 392.51 230.823C400.725 235.319 408.411 237.25 418.086 236.87C416.794 237.391 415.254 237.654 413.853 237.83C401.616 239.353 387.666 236.239 377.878 229.45C383.833 228.494 390.923 227.329 396.453 225.007Z" fill="#9996A1"/>
<path d="M214.032 99.6177C225.972 102.574 241.036 109.179 249.341 117.589C241.072 113.406 229.205 109.612 219.969 107.311C217.749 106.758 215.07 106.418 212.794 105.994C212.399 105.921 210.239 105.643 210.039 105.579L210.473 105.383C211.431 103.207 212.609 101.557 214.032 99.6177Z" fill="#B2B0B6"/>
<path d="M131.713 102.814C132.682 100.193 133.604 97.557 134.479 94.9084C134.979 93.3958 135.774 90.3983 136.542 89.174C139.153 85.0091 146.598 82.3732 151.405 81.1289C151.468 81.2961 151.531 81.4635 151.594 81.6308C149.861 85.7629 147.817 89.7949 146.064 93.9352C140.148 96.3593 136.306 98.6881 131.713 102.814Z" fill="#F0F0F0"/>
<path d="M285.344 214.471C275.796 205.325 281.277 201.786 283.096 191.646C285.733 194.61 288.423 197.535 291.167 200.42C289.397 205.218 287.168 209.663 285.344 214.471Z" fill="#9996A1"/>
<path d="M163.385 61.0825L163.737 61.1878C163.657 61.79 158.217 70.2442 157.434 71.5402C150.494 73.5953 146.222 75.1101 139.906 78.4835L139.67 78.4554L139.609 78.2385C142.895 74.3465 145.969 69.2491 149.52 65.8312C151.855 63.5837 159.92 62.1908 163.385 61.0825Z" fill="#9996A1"/>
<path d="M282.91 179.731C289.343 183.053 294.421 186.588 293.003 193.897C292.468 196.367 291.951 198.028 291.167 200.421C288.423 197.536 285.732 194.61 283.096 191.646C283.271 189.779 283.376 187.907 283.411 186.034L282.91 179.731Z" fill="#F0F0F0"/>
<path d="M283.411 186.034C285.749 188.049 290.603 192.539 293.003 193.897C292.468 196.367 291.951 198.027 291.167 200.421C288.423 197.536 285.732 194.61 283.096 191.646C283.271 189.779 283.376 187.907 283.411 186.034Z" fill="#D9D9D9"/>
<path d="M276.902 173.575C280.581 176.689 281.87 178.848 282.09 183.507C282.129 185.714 281.829 186.923 281.294 189.049C280.237 192.362 278.75 195.553 276.87 198.555C276.406 198.053 275.564 197.208 275.259 196.658C273.562 194.727 271.641 191.607 273.425 189.34C275.061 186.447 275.442 185.355 276.291 182.171C276.504 181.195 276.624 180.063 276.758 179.064C276.836 177.235 276.885 175.405 276.902 173.575Z" fill="#9996A1"/>
<path d="M276.902 173.575C280.581 176.689 281.87 178.848 282.09 183.507L281.873 183.948C280.884 183.774 277.773 180.073 276.758 179.064C276.836 177.235 276.885 175.405 276.902 173.575Z" fill="#F0F0F0"/>
<path d="M276.758 179.064C277.773 180.073 280.884 183.774 281.873 183.948L282.09 183.507C282.129 185.714 281.829 186.923 281.294 189.049C279.602 186.967 277.92 184.374 276.292 182.171C276.504 181.195 276.624 180.063 276.758 179.064Z" fill="#D9D9D9"/>
<path d="M273.425 189.34C273.965 191.207 275.112 194.866 275.259 196.658C273.562 194.727 271.641 191.607 273.425 189.34Z" fill="#807D8D"/>
<path d="M384.194 88.0591C386.477 90.1852 387.961 92.0381 389.822 94.4608C390.288 95.0668 392.224 97.6642 392.72 98.0509C392.229 99.8309 390.559 103.703 389.849 105.459C388.35 109.252 386.79 113.025 385.166 116.776L384.194 88.0591Z" fill="#B2B0B6"/>
<path d="M180.438 46.6754C182.323 46.475 185.037 46.5486 186.925 46.6404C178.139 47.957 171.573 50.1053 166.696 57.088C164.467 57.1919 162.442 57.3561 160.292 57.9071C158.171 58.4659 156.75 59.0532 154.746 59.8537C164.033 48.5439 164.535 47.7883 180.438 46.6754Z" fill="#9996A1"/>
<path d="M217.439 48.1236C219.259 46.6222 221.282 45.3357 223.463 44.2951C230.81 40.8406 238.694 41.4114 246.35 43.5731C245.293 44.7827 239.936 46.9947 237.961 48.1465C230.389 46.6886 224.972 46.787 217.439 48.1236Z" fill="#F0F0F0"/>
<path d="M270.652 165.431C272.317 167.954 273.941 170.499 275.523 173.065C275.293 174.124 275.078 175.17 274.79 176.218L274.136 178.533C273.65 180.358 273.098 182.164 272.315 183.907C271.792 185.25 271.109 186.586 270.474 187.895C266.497 182.953 265.767 179.225 269.404 173.881L270.125 172.205L270.405 170.327C270.54 168.698 270.62 167.065 270.652 165.431Z" fill="#9996A1"/>
<path d="M270.474 187.895C266.497 182.953 265.767 179.225 269.404 173.881C269.719 175.396 271.406 183.127 272.315 183.908C271.792 185.25 271.109 186.587 270.474 187.895Z" fill="#807D8D"/>
<path d="M270.652 165.431C272.317 167.954 273.94 170.499 275.522 173.065C275.293 174.124 275.078 175.17 274.79 176.218L274.375 176.115C272.988 174.313 271.472 172.287 270.405 170.327C270.54 168.698 270.62 167.065 270.652 165.431Z" fill="#F0F0F0"/>
<path d="M270.125 172.205L270.405 170.328C271.472 172.287 272.988 174.313 274.375 176.115L274.79 176.218L274.136 178.534C273.398 177.767 270.823 173.362 270.125 172.205Z" fill="#D9D9D9"/>
<path d="M351.458 31.541C358.298 34.7073 361.65 39.937 363.938 46.3835C362.639 46.3047 353.97 42.2639 352.463 41.4997L352.573 41.2274C353.574 41.4291 354.751 41.7508 355.759 41.9991C354.107 40.1209 347.498 34.1771 347.9 32.2551C348.672 31.8838 350.51 31.6849 351.458 31.541Z" fill="#F0F0F0"/>
<path d="M374.753 79.2114C376.267 80.1639 378.76 82.5359 380.132 83.7956C377.117 92.9566 373.821 103.635 370.479 112.617C371.018 106.622 372.205 102.14 373.193 96.3259C374.136 90.6587 374.658 84.9412 374.753 79.2114Z" fill="#B2B0B6"/>
<path d="M266.003 161.314L266.58 160.793C268.852 161.456 269.126 167.403 268.484 169.263C267.783 171.187 266.977 173.079 266.069 174.931C265.92 173.81 265.305 171.66 264.917 170.57C263.677 167.076 264.966 164.758 266.003 161.314Z" fill="#807D8D"/>
<path d="M266.003 161.314L266.58 160.793C268.852 161.456 269.126 167.403 268.484 169.263C267.109 167.66 265.908 163.289 266.003 161.314Z" fill="#F0F0F0"/>
<path d="M407.261 220.307C410.483 222.201 413.792 223.983 417.063 225.809L400.288 223.77C402.136 222.855 405.796 221.487 407.261 220.307Z" fill="#9996A1"/>
<path d="M316.235 237.524C317.432 237.88 322.222 239.278 323.396 239.416C324.941 242.488 326.096 244 328.516 246.529C322.678 244.861 319.285 242.319 316.235 237.524Z" fill="#807D8D"/>
<path d="M422.058 210.92C425.176 213.608 427.878 215.997 430.469 219.161C425.791 217.344 422.544 216.274 418.447 213.527C419.253 213.101 421.252 211.527 422.058 210.92Z" fill="#9996A1"/>
<path d="M441.775 189.346C443.069 189.179 447.092 189.844 448.633 190.048C446.462 190.7 444.272 191.301 442.065 191.853C444.868 193.419 447.957 195.08 450.608 196.825C445.967 195.116 443.779 194.352 438.723 193.832C439.382 193.011 441.79 190.183 441.775 189.346Z" fill="#9996A1"/>
<path d="M262.957 164.486C263.147 162.133 262.993 156.036 263.423 154.256C264.529 155.842 265.986 157.523 265.979 159.372C265.686 159.959 265.63 160.081 265.23 160.607C264.512 161.917 263.726 163.2 262.957 164.486Z" fill="#D9D9D9"/>
<path d="M262.957 164.486C263.147 162.133 262.993 156.036 263.423 154.256C263.545 156.398 263.22 159.162 265.23 160.607C264.512 161.917 263.726 163.2 262.957 164.486Z" fill="#B2B0B6"/>
<path d="M429.736 204.052C431.128 205.237 432.09 206.167 433.367 207.459C431.27 206.563 430.222 206.129 427.888 205.742C428.628 205.175 429.08 204.703 429.736 204.052Z" fill="#9996A1"/>
<path d="M147.573 271.644C146.769 270.912 145.832 270.413 144.878 269.837C146.728 270.079 147.396 270.202 149.173 270.71L147.573 271.644Z" fill="#807D8D"/>
<path d="M250.015 242.937L250.344 244.578C250.459 244.571 250.574 244.562 250.686 244.556C250.769 245.597 250.308 247.39 250.054 248.441C249.981 246.67 250.02 244.721 250.015 242.937Z" fill="#646464"/>
<path d="M130.94 332.501C131.615 331.662 132.313 330.757 133.006 329.937C132.586 331.042 131.875 333.09 131.298 334.048L130.94 332.501Z" fill="#222222"/>
</g>
<defs>
<clipPath id="clip0_648_1817">
<rect width="500" height="450" fill="white"/>
</clipPath>
</defs>
</svg>
