<svg width="24" height="24" viewBox="0 0 24 24" fill="none" xmlns="http://www.w3.org/2000/svg">
<path d="M13.5 4.06001C13.5 2.72401 11.884 2.05501 10.94 3.00001L6.44001 7.50001H4.50801C3.36701 7.50001 2.19001 8.16401 1.84801 9.40501C1.61598 10.2505 1.49893 11.1233 1.50001 12C1.50001 12.898 1.62101 13.768 1.85001 14.595C2.19101 15.835 3.36801 16.5 4.50901 16.5H6.43901L10.939 21C11.884 21.945 13.5 21.276 13.5 19.94V4.06001ZM18.584 5.10601C18.7246 4.96556 18.9153 4.88667 19.114 4.88667C19.3128 4.88667 19.5034 4.96556 19.644 5.10601C23.452 8.91301 23.452 15.086 19.644 18.894C19.5018 19.0265 19.3138 19.0986 19.1195 19.0952C18.9252 19.0918 18.7398 19.013 18.6024 18.8756C18.465 18.7382 18.3863 18.5528 18.3828 18.3585C18.3794 18.1642 18.4515 17.9762 18.584 17.834C19.3502 17.0679 19.958 16.1584 20.3727 15.1574C20.7873 14.1564 21.0007 13.0835 21.0007 12C21.0007 10.9165 20.7873 9.84364 20.3727 8.84263C19.958 7.84163 19.3502 6.93211 18.584 6.16601C18.4436 6.02539 18.3647 5.83476 18.3647 5.63601C18.3647 5.43726 18.4436 5.24664 18.584 5.10601Z" fill="#222222"/>
<path d="M15.932 7.75701C16.0016 7.68732 16.0843 7.63203 16.1753 7.59431C16.2664 7.55659 16.3639 7.53717 16.4625 7.53717C16.561 7.53717 16.6586 7.55659 16.7496 7.59431C16.8406 7.63203 16.9233 7.68732 16.993 7.75701C17.5502 8.31418 17.9923 8.97566 18.2939 9.70368C18.5955 10.4317 18.7507 11.212 18.7507 12C18.7507 12.788 18.5955 13.5683 18.2939 14.2963C17.9923 15.0244 17.5502 15.6858 16.993 16.243C16.8514 16.3796 16.662 16.4551 16.4653 16.4533C16.2687 16.4515 16.0806 16.3725 15.9416 16.2334C15.8026 16.0943 15.7238 15.9061 15.7222 15.7095C15.7206 15.5128 15.7963 15.3234 15.933 15.182C16.3508 14.7641 16.6823 14.2681 16.9085 13.7221C17.1346 13.1761 17.251 12.591 17.251 12C17.251 11.4091 17.1346 10.8239 16.9085 10.2779C16.6823 9.73195 16.3508 9.23587 15.933 8.81801C15.7925 8.67738 15.7136 8.48676 15.7136 8.28801C15.7136 8.08926 15.7925 7.89864 15.933 7.75801L15.932 7.75701Z" fill="#222222"/>
</svg>
