<svg width="20" height="20" viewBox="0 0 20 20" fill="none" xmlns="http://www.w3.org/2000/svg">
<path d="M3.67206 16.0985C3.27831 16.0985 2.94311 15.9602 2.66644 15.6835C2.38991 15.407 2.25165 15.0718 2.25165 14.6779V5.32208C2.25165 4.92819 2.38991 4.59299 2.66644 4.31646C2.94311 4.03979 3.27831 3.90146 3.67206 3.90146H16.3279C16.7216 3.90146 17.0569 4.03979 17.3335 4.31646C17.6101 4.59299 17.7483 4.92819 17.7483 5.32208V14.6779C17.7483 15.0718 17.6101 15.407 17.3335 15.6835C17.0569 15.9602 16.7216 16.0985 16.3279 16.0985H3.67206ZM9.99998 10.4019L3.41748 6.185V14.6763C3.41748 14.7511 3.44151 14.8126 3.48956 14.8606C3.53762 14.9087 3.59908 14.9327 3.67394 14.9327H16.326C16.4009 14.9327 16.4623 14.9087 16.5104 14.8606C16.5585 14.8126 16.5825 14.7511 16.5825 14.6763V6.185L9.99998 10.4019ZM9.99998 9.18354L16.4375 5.06729H3.56248L9.99998 9.18354ZM3.41748 6.185V5.06729V14.6763C3.41748 14.7511 3.44151 14.8126 3.48956 14.8606C3.53762 14.9087 3.59908 14.9327 3.67394 14.9327H3.41748V6.185Z" fill="#888888"/>
</svg>
