<svg width="35" height="35" viewBox="0 0 35 35" fill="none" xmlns="http://www.w3.org/2000/svg">
<path d="M28.9377 11.0571C30.0473 13.0229 30.6286 15.2427 30.625 17.5C30.625 18.6346 30.4806 19.7356 30.2108 20.7856C29.4816 23.6021 27.8375 26.0966 25.5369 27.8775C23.2363 29.6584 20.4094 30.6248 17.5 30.625M6.0623 11.0571C4.98751 12.9602 4.37501 15.1594 4.37501 17.5C4.37402 18.6083 4.51318 19.7123 4.78917 20.7856C5.51845 23.6021 7.16247 26.0966 9.46309 27.8775C11.7637 29.6584 14.5906 30.6248 17.5 30.625M17.5 30.625C21.124 30.625 24.0625 24.7479 24.0625 17.5C24.0625 10.2521 21.124 4.375 17.5 4.375M17.5 30.625C13.876 30.625 10.9375 24.7479 10.9375 17.5C10.9375 10.2521 13.876 4.375 17.5 4.375M30.2108 20.7856C26.3217 22.9416 21.9467 24.0695 17.5 24.0625C12.8888 24.0625 8.55605 22.874 4.78917 20.7856M17.5 4.375C19.8279 4.37403 22.1141 4.9924 24.124 6.16666C26.134 7.34092 27.7954 9.02879 28.9377 11.0571M17.5 4.375C15.1722 4.37403 12.886 4.9924 10.876 6.16666C8.866 7.34092 7.20462 9.02879 6.0623 11.0571M28.9377 11.0571C25.7624 13.8074 21.7008 15.3185 17.5 15.3125C13.1279 15.3125 9.12917 13.7083 6.0623 11.0571" stroke="white" stroke-width="1.5" stroke-linecap="round" stroke-linejoin="round"/>
</svg>
