<svg width="28" height="28" viewBox="0 0 28 28" fill="none" xmlns="http://www.w3.org/2000/svg">
<path d="M25.3127 7.43208C26.4223 9.3979 27.0036 11.6177 27 13.875C27 15.0096 26.8556 16.1106 26.5858 17.1606C25.8566 19.9771 24.2125 22.4716 21.9119 24.2525C19.6113 26.0334 16.7844 26.9998 13.875 27M2.4373 7.43208C1.36251 9.33521 0.750005 11.5344 0.750005 13.875C0.749019 14.9833 0.888178 16.0873 1.16417 17.1606C1.89345 19.9771 3.53747 22.4716 5.83809 24.2525C8.13871 26.0334 10.9656 26.9998 13.875 27M13.875 27C17.499 27 20.4375 21.1229 20.4375 13.875C20.4375 6.62709 17.499 0.750001 13.875 0.750001M13.875 27C10.251 27 7.31251 21.1229 7.31251 13.875C7.31251 6.62709 10.251 0.750001 13.875 0.750001M26.5858 17.1606C22.6967 19.3166 18.3217 20.4445 13.875 20.4375C9.26376 20.4375 4.93105 19.249 1.16417 17.1606M13.875 0.750001C16.2029 0.74903 18.4891 1.3674 20.499 2.54166C22.509 3.71592 24.1704 5.40379 25.3127 7.43208M13.875 0.750001C11.5472 0.74903 9.26095 1.3674 7.25098 2.54166C5.241 3.71592 3.57962 5.40379 2.4373 7.43208M25.3127 7.43208C22.1374 10.1824 18.0758 11.6935 13.875 11.6875C9.50292 11.6875 5.50417 10.0833 2.4373 7.43208" stroke="white" stroke-width="1.5" stroke-linecap="round" stroke-linejoin="round"/>
</svg>
