<svg width="35" height="35" viewBox="0 0 35 35" fill="none" xmlns="http://www.w3.org/2000/svg">
<path d="M21.875 15.3125C21.875 16.4728 21.4141 17.5856 20.5936 18.4061C19.7731 19.2266 18.6603 19.6875 17.5 19.6875C16.3397 19.6875 15.2269 19.2266 14.4064 18.4061C13.5859 17.5856 13.125 16.4728 13.125 15.3125C13.125 14.1522 13.5859 13.0394 14.4064 12.2189C15.2269 11.3984 16.3397 10.9375 17.5 10.9375C18.6603 10.9375 19.7731 11.3984 20.5936 12.2189C21.4141 13.0394 21.875 14.1522 21.875 15.3125Z" stroke="white" stroke-width="1.5" stroke-linecap="round" stroke-linejoin="round"/>
<path d="M28.4375 15.3125C28.4375 25.7279 17.5 31.7188 17.5 31.7188C17.5 31.7188 6.5625 25.7279 6.5625 15.3125C6.5625 12.4117 7.71484 9.6297 9.76602 7.57852C11.8172 5.52734 14.5992 4.375 17.5 4.375C20.4008 4.375 23.1828 5.52734 25.234 7.57852C27.2852 9.6297 28.4375 12.4117 28.4375 15.3125Z" stroke="white" stroke-width="1.5" stroke-linecap="round" stroke-linejoin="round"/>
</svg>
