<svg width="15" height="15" viewBox="0 0 15 15" fill="none" xmlns="http://www.w3.org/2000/svg">
<path d="M9.84374 3.75C9.84374 4.3716 9.59681 4.96774 9.15727 5.40728C8.71773 5.84682 8.12159 6.09375 7.49999 6.09375C6.87838 6.09375 6.28224 5.84682 5.8427 5.40728C5.40317 4.96774 5.15624 4.3716 5.15624 3.75C5.15624 3.1284 5.40317 2.53226 5.8427 2.09272C6.28224 1.65318 6.87838 1.40625 7.49999 1.40625C8.12159 1.40625 8.71773 1.65318 9.15727 2.09272C9.59681 2.53226 9.84374 3.1284 9.84374 3.75ZM2.81311 12.5738C2.83319 11.344 3.33582 10.1714 4.2126 9.30878C5.08937 8.44621 6.27004 7.96279 7.49999 7.96279C8.72993 7.96279 9.9106 8.44621 10.7874 9.30878C11.6641 10.1714 12.1668 11.344 12.1869 12.5738C10.7165 13.248 9.11758 13.5959 7.49999 13.5938C5.82749 13.5938 4.23999 13.2288 2.81311 12.5738Z" stroke="#888888" stroke-linecap="round" stroke-linejoin="round"/>
</svg>
