<svg width="21" height="21" viewBox="0 0 21 21" fill="none" xmlns="http://www.w3.org/2000/svg">
<path d="M12.75 4.587C12.75 4.232 12.936 3.911 13.151 3.628C13.372 3.338 13.5 2.994 13.5 2.625C13.5 1.589 12.493 0.75 11.25 0.75C10.007 0.75 9 1.59 9 2.625C9 2.994 9.128 3.338 9.349 3.628C9.564 3.911 9.75 4.232 9.75 4.587C9.75043 4.67275 9.73363 4.75771 9.70059 4.83684C9.66755 4.91596 9.61894 4.98764 9.55766 5.04762C9.49637 5.1076 9.42366 5.15465 9.34384 5.18598C9.26402 5.21731 9.17872 5.23228 9.093 5.23C7.70166 5.18992 6.31271 5.08983 4.93 4.93C5.116 6.543 5.223 8.18 5.245 9.837C5.24593 9.9239 5.22958 10.0101 5.1969 10.0907C5.16422 10.1712 5.11587 10.2444 5.05465 10.3061C4.99343 10.3678 4.92056 10.4167 4.84028 10.45C4.76 10.4833 4.67391 10.5003 4.587 10.5C4.232 10.5 3.911 10.314 3.628 10.099C3.34137 9.87511 2.9887 9.7524 2.625 9.75C1.589 9.75 0.75 10.757 0.75 12C0.75 13.243 1.59 14.25 2.625 14.25C2.994 14.25 3.338 14.122 3.628 13.901C3.911 13.686 4.232 13.5 4.587 13.5C4.897 13.5 5.142 13.76 5.119 14.07C4.99461 15.7655 4.78031 17.4532 4.477 19.126C5.995 19.316 7.535 19.435 9.093 19.48C9.17872 19.4823 9.26402 19.4673 9.34384 19.436C9.42366 19.4047 9.49637 19.3576 9.55766 19.2976C9.61894 19.2376 9.66755 19.166 9.70059 19.0868C9.73363 19.0077 9.75043 18.9227 9.75 18.837C9.75 18.482 9.564 18.161 9.349 17.878C9.12511 17.5914 9.0024 17.2387 9 16.875C9 15.84 10.008 15 11.25 15C12.493 15 13.5 15.84 13.5 16.875C13.5 17.244 13.372 17.588 13.151 17.878C12.936 18.161 12.751 18.482 12.751 18.837C12.751 19.17 13.028 19.436 13.361 19.417C15.1805 19.31 16.9924 19.0997 18.788 18.787C19.0597 17.2252 19.2539 15.651 19.37 14.07C19.3752 13.9969 19.3653 13.9236 19.3409 13.8545C19.3164 13.7854 19.278 13.7222 19.2279 13.6686C19.1779 13.6151 19.1173 13.5725 19.0501 13.5435C18.9828 13.5145 18.9103 13.4997 18.837 13.5C18.482 13.5 18.161 13.686 17.878 13.901C17.588 14.122 17.244 14.25 16.875 14.25C15.84 14.25 15 13.243 15 12C15 10.757 15.84 9.75 16.875 9.75C17.245 9.75 17.588 9.878 17.878 10.099C18.161 10.314 18.482 10.5 18.838 10.5C18.9249 10.5003 19.011 10.4833 19.0913 10.45C19.1716 10.4167 19.2444 10.3678 19.3057 10.3061C19.3669 10.2444 19.4152 10.1712 19.4479 10.0907C19.4806 10.0101 19.4969 9.9239 19.496 9.837C19.472 8.04486 19.3484 6.25544 19.126 4.477C17.24 4.819 15.316 5.051 13.36 5.166C13.2813 5.17037 13.2025 5.15858 13.1285 5.13137C13.0545 5.10416 12.9869 5.06209 12.9297 5.00777C12.8726 4.95344 12.8272 4.888 12.7963 4.81546C12.7653 4.74293 12.7496 4.66584 12.75 4.587Z" stroke="currentColor" stroke-width="1.5" stroke-linecap="round" stroke-linejoin="round"/>
</svg>
