<svg width="356" height="480" viewBox="0 0 356 480" fill="none" xmlns="http://www.w3.org/2000/svg">
<g filter="url(#filter0_d_793_5047)">
<path d="M238.891 439C211.377 439 185.454 433.709 161.121 423.126C136.791 412.544 115.623 398.272 97.6149 380.31C79.6111 362.349 65.341 341.215 54.8046 316.908C44.2682 292.605 39 266.695 39 239.178C39 211.665 44.2912 185.693 54.8736 161.264C65.4559 136.839 79.728 115.623 97.6897 97.6149C115.651 79.6111 136.776 65.341 161.063 54.8046C185.351 44.2682 211.318 39 238.966 39C266.383 39 292.307 44.2912 316.736 54.8736C341.161 65.4559 362.377 79.728 380.385 97.6897C398.389 115.651 412.659 136.833 423.195 161.236C433.732 185.634 439 211.592 439 239.109C439 266.623 433.709 292.546 423.126 316.879C412.544 341.209 398.272 362.377 380.31 380.385C362.349 398.389 341.167 412.659 316.764 423.195C292.366 433.732 266.408 439 238.891 439ZM344.747 199.92L389.575 185.121L401.644 141.874C389 121.375 372.849 103.818 353.19 89.2011C333.531 74.5843 311.176 63.7893 286.126 56.8161L245.322 85.3218V130.379L344.747 199.92ZM133.971 199.92L232.678 130.379V85.3965L191.586 56.8161C167.257 63.7126 145.322 74.4885 125.782 89.1437C106.241 103.799 90.341 121.285 78.0805 141.603L90.7241 184.977L133.971 199.92ZM99.1379 366.586L140.868 362.563L166.586 321.184L131.529 213.713L84.7356 198.195L51.6437 223.023C51.6437 251.49 54.8046 276.979 61.1264 299.488C67.4483 321.998 80.1188 344.364 99.1379 366.586ZM270.034 423.483C280.762 421.567 292.257 418.885 304.517 415.437L325.782 368.885L302.661 330.954H175.207L153.368 368.885L175.207 415.437C185.935 418.885 196.759 421.567 207.678 423.483C218.598 425.398 229.038 426.356 239 426.356C248.962 426.356 259.307 425.398 270.034 423.483ZM178.655 318.31H299.92L334.977 209.115L239 140.724L141.874 208.989L178.655 318.31ZM378.931 366.586C397.904 344.364 410.552 321.987 416.874 299.454C423.195 276.921 426.356 251.431 426.356 222.983L394.414 199.92L346.471 212.563L311.414 320.914L337.276 362.563L378.931 366.586Z" fill="white"/>
<path d="M238.966 39.25C266.35 39.25 292.24 44.5342 316.637 55.1025C341.034 65.673 362.225 79.9278 380.209 97.8662C398.189 115.805 412.441 136.96 422.966 161.335C433.488 185.701 438.75 211.625 438.75 239.109C438.75 266.59 433.466 292.479 422.897 316.779C412.327 341.081 398.072 362.224 380.134 380.209C362.195 398.189 341.04 412.441 316.665 422.966C292.299 433.488 266.375 438.75 238.891 438.75C211.41 438.75 185.521 433.466 161.221 422.897C136.919 412.327 115.776 398.072 97.792 380.134C79.8114 362.195 65.5586 341.087 55.0342 316.809C44.5119 292.538 39.25 266.662 39.25 239.178C39.2501 211.697 44.5343 185.76 55.1025 161.363C65.673 136.966 79.9278 115.775 97.8662 97.791C115.805 79.8104 136.903 65.5585 161.163 55.0342C185.418 44.5121 211.351 39.25 238.966 39.25ZM174.99 330.829L153.151 368.761L153.086 368.873L153.142 368.991L174.98 415.543L175.026 415.642L175.131 415.675C185.869 419.126 196.704 421.811 207.635 423.729C218.567 425.646 229.022 426.606 239 426.606C248.978 426.606 259.337 425.647 270.078 423.729C280.815 421.811 292.318 419.128 304.585 415.678L304.696 415.646L304.745 415.541L326.009 368.989L326.064 368.868L325.995 368.755L302.874 330.824L302.802 330.704H175.062L174.99 330.829ZM84.5859 197.995L51.4932 222.823L51.3936 222.898V223.023C51.3936 251.509 54.5567 277.02 60.8857 299.556C67.2195 322.108 79.9112 344.506 98.9482 366.749L99.0322 366.848L99.1621 366.835L140.892 362.812L141.015 362.8L141.08 362.695L166.799 321.315L166.86 321.217L166.824 321.106L131.767 213.635L131.728 213.515L131.607 213.476L84.8145 197.958L84.6904 197.917L84.5859 197.995ZM238.856 140.52L141.729 208.784L141.577 208.892L141.637 209.068L178.418 318.39L178.476 318.561H300.102L300.157 318.387L335.215 209.191L335.271 209.018L335.122 208.911L239.146 140.521L239.001 140.418L238.856 140.52ZM285.983 56.6113L245.179 85.1172L245.072 85.1914V130.51L245.179 130.584L344.604 200.124L344.706 200.196L344.825 200.157L389.653 185.358L389.779 185.316L389.815 185.188L401.885 141.94L401.914 141.835L401.856 141.742C389.196 121.217 373.023 103.636 353.339 89.001C333.654 74.3647 311.271 63.5561 286.193 56.5752L286.08 56.5439L285.983 56.6113ZM426.606 222.854L426.503 222.78L394.561 199.717L394.464 199.647L394.35 199.678L346.407 212.321L346.275 212.356L346.233 212.486L311.176 320.837L311.141 320.947L311.201 321.046L337.063 362.695L337.129 362.8L337.252 362.812L378.907 366.835L379.036 366.848L379.121 366.749C398.112 344.506 410.781 322.096 417.114 299.521C423.443 276.963 426.606 251.449 426.606 222.982V222.854ZM232.928 85.2656L232.821 85.1914L191.729 56.6113L191.632 56.543L191.518 56.5752C167.16 63.4798 145.197 74.2693 125.632 88.9434C106.067 103.617 90.1438 121.128 77.8662 141.475L77.8096 141.568L77.8408 141.674L90.4844 185.047L90.5205 185.171L90.6426 185.213L133.89 200.156L134.011 200.197L134.115 200.124L232.822 130.584L232.928 130.509V85.2656Z" stroke="#DCD4E2" stroke-opacity="0.31" stroke-width="0.5"/>
</g>
<defs>
<filter id="filter0_d_793_5047" x="0" y="0" width="480" height="480" filterUnits="userSpaceOnUse" color-interpolation-filters="sRGB">
<feFlood flood-opacity="0" result="BackgroundImageFix"/>
<feColorMatrix in="SourceAlpha" type="matrix" values="0 0 0 0 0 0 0 0 0 0 0 0 0 0 0 0 0 0 127 0" result="hardAlpha"/>
<feOffset dx="1" dy="1"/>
<feGaussianBlur stdDeviation="20"/>
<feComposite in2="hardAlpha" operator="out"/>
<feColorMatrix type="matrix" values="0 0 0 0 0.4 0 0 0 0 0.407843 0 0 0 0 0.631373 0 0 0 0.15 0"/>
<feBlend mode="normal" in2="BackgroundImageFix" result="effect1_dropShadow_793_5047"/>
<feBlend mode="normal" in="SourceGraphic" in2="effect1_dropShadow_793_5047" result="shape"/>
</filter>
</defs>
</svg>
