<svg width="217" height="310" viewBox="0 0 217 310" fill="none" xmlns="http://www.w3.org/2000/svg">
<g filter="url(#filter0_d_742_5567)">
<path d="M60.9317 279C43.7359 279 27.5338 275.693 12.3254 269.079C-2.88052 262.465 -16.1109 253.545 -27.3657 242.319C-38.6181 231.093 -47.5369 217.884 -54.1221 202.693C-60.7074 187.503 -64 171.31 -64 154.111C-64 136.915 -60.693 120.683 -54.079 105.415C-47.465 90.1494 -38.545 76.8891 -27.319 65.6343C-16.0929 54.3819 -2.89008 45.4631 12.2895 38.8779C27.4691 32.2926 43.6987 29 60.9784 29C78.1145 29 94.3166 32.307 109.585 38.921C124.851 45.535 138.111 54.455 149.366 65.681C160.618 76.9071 169.537 90.1458 176.122 105.397C182.707 120.646 186 136.87 186 154.068C186 171.264 182.693 187.466 176.079 202.675C169.465 217.88 160.545 231.111 149.319 242.366C138.093 253.618 124.854 262.537 109.603 269.122C94.3537 275.707 78.13 279 60.9317 279ZM127.092 129.575L155.109 120.325L162.652 93.296C154.75 80.4847 144.655 69.5112 132.369 60.3757C120.082 51.2402 106.11 44.4933 90.454 40.1351L64.9511 57.9511V86.1121L127.092 129.575ZM-4.64296 129.575L57.0488 86.1121V57.9978L31.3664 40.1351C16.1604 44.4454 2.45115 51.1803 -9.7615 60.3398C-21.9741 69.4993 -31.9119 80.4284 -39.5747 93.1272L-31.6724 120.236L-4.64296 129.575ZM-26.4138 233.741L-0.332619 231.227L15.7414 205.365L-6.16954 138.195L-35.4152 128.497L-56.0977 144.014C-56.0977 161.807 -54.1221 177.737 -50.171 191.805C-46.2198 205.874 -38.3008 219.852 -26.4138 233.741ZM80.3965 269.302C87.1015 268.104 94.2854 266.428 101.948 264.273L115.238 235.178L100.788 211.471H21.1293L7.47988 235.178L21.1293 264.273C27.8343 266.428 34.5991 268.104 41.4238 269.302C48.2486 270.499 54.7739 271.098 61 271.098C67.2261 271.098 73.6916 270.499 80.3965 269.302ZM23.2845 203.569H99.0747L120.986 135.322L61 92.5776L0.295975 135.243L23.2845 203.569ZM148.457 233.741C160.315 219.852 168.22 205.867 172.171 191.784C176.122 177.701 178.098 161.769 178.098 143.989L158.134 129.575L128.17 137.477L106.259 205.196L122.422 231.227L148.457 233.741Z" fill="#F1441A" fill-opacity="0.02" shape-rendering="crispEdges"/>
<path d="M60.9785 29.25C78.0814 29.25 94.2495 32.5504 109.485 39.1504C124.724 45.7525 137.958 54.6555 149.189 65.8584C160.418 77.0609 169.319 90.2727 175.893 105.496C182.464 120.713 185.75 136.903 185.75 154.068C185.75 171.231 182.449 187.4 175.85 202.575C169.248 217.754 160.345 230.958 149.142 242.189C137.939 253.418 124.727 262.319 109.504 268.893C94.2873 275.464 78.0971 278.75 60.9316 278.75C43.7688 278.75 27.6005 275.449 12.4248 268.85C-2.7536 262.248 -15.9578 253.345 -27.1895 242.142C-38.4184 230.939 -47.3194 217.756 -53.8926 202.593C-60.4636 187.436 -63.75 171.277 -63.75 154.111C-63.75 136.948 -60.4495 120.75 -53.8496 105.515C-47.2475 90.2763 -38.3445 77.0421 -27.1416 65.8105C-15.9389 54.5816 -2.76289 45.6806 12.3887 39.1074C27.5355 32.5364 43.7315 29.25 60.9785 29.25ZM20.9131 211.347L7.26367 235.054L7.19824 235.166L7.25391 235.284L20.9033 264.379L20.9492 264.478L21.0527 264.511C27.7684 266.669 34.5447 268.349 41.3809 269.548C48.2182 270.747 54.758 271.348 61 271.348C67.2421 271.348 73.7223 270.748 80.4404 269.548C87.1545 268.349 94.3463 266.671 102.016 264.514L102.128 264.482L102.176 264.377L115.466 235.282L115.521 235.161L115.452 235.048L101.002 211.341L100.929 211.222H20.9844L20.9131 211.347ZM-35.5654 128.297L-56.248 143.814L-56.3477 143.89V144.015C-56.3476 161.825 -54.3706 177.778 -50.4121 191.873C-46.449 205.984 -38.5083 219.995 -26.6035 233.904L-26.5195 234.003L-26.3896 233.99L-0.308594 231.476L-0.185547 231.464L-0.120117 231.359L15.9541 205.497L16.0156 205.398L15.9795 205.287L-5.93164 138.118L-5.9707 137.998L-6.09082 137.958L-35.3369 128.26L-35.4609 128.219L-35.5654 128.297ZM60.8564 92.373L0.152344 135.038L-0.000976562 135.146L0.0585938 135.322L23.0479 203.648L23.1045 203.819H99.2568L99.3125 203.646L121.224 135.398L121.279 135.225L121.131 135.118L61.1455 92.374L61.001 92.2715L60.8564 92.373ZM90.3105 39.9297L64.8076 57.7461L64.7012 57.8213V86.2422L64.8076 86.3174L126.948 129.779L127.052 129.852L127.17 129.812L155.188 120.562L155.314 120.521L155.35 120.393L162.894 93.3633L162.923 93.2578L162.865 93.165C154.946 80.3263 144.829 69.3289 132.518 60.1748C120.205 51.02 106.205 44.2605 90.5215 39.8945L90.4072 39.8623L90.3105 39.9297ZM178.348 143.861L178.244 143.786L158.28 129.372L158.185 129.303L158.07 129.333L128.105 137.235L127.974 137.271L127.932 137.4L106.021 205.119L105.985 205.229L106.046 205.328L122.21 231.358L122.275 231.464L122.398 231.476L148.433 233.99L148.562 234.003L148.647 233.903C160.523 219.994 168.449 205.977 172.412 191.852C176.371 177.743 178.348 161.788 178.348 143.989V143.861ZM57.2988 57.8672L57.1914 57.793L31.5088 39.9297L31.4121 39.8623L31.2979 39.8945C16.0637 44.2129 2.32677 50.9613 -9.91113 60.1396C-22.1487 69.3178 -32.1091 80.271 -39.7891 92.998L-39.8457 93.0918L-39.8145 93.1973L-31.9121 120.306L-31.876 120.43L-31.7539 120.472L-4.72461 129.811L-4.60352 129.853L-4.49902 129.779L57.1924 86.3164L57.2988 86.2422V57.8672Z" stroke="#DCD4E2" stroke-width="0.5" shape-rendering="crispEdges"/>
</g>
<defs>
<filter id="filter0_d_742_5567" x="-93" y="0" width="310" height="310" filterUnits="userSpaceOnUse" color-interpolation-filters="sRGB">
<feFlood flood-opacity="0" result="BackgroundImageFix"/>
<feColorMatrix in="SourceAlpha" type="matrix" values="0 0 0 0 0 0 0 0 0 0 0 0 0 0 0 0 0 0 127 0" result="hardAlpha"/>
<feOffset dx="1" dy="1"/>
<feGaussianBlur stdDeviation="15"/>
<feComposite in2="hardAlpha" operator="out"/>
<feColorMatrix type="matrix" values="0 0 0 0 0.4 0 0 0 0 0.407843 0 0 0 0 0.631373 0 0 0 0.43 0"/>
<feBlend mode="normal" in2="BackgroundImageFix" result="effect1_dropShadow_742_5567"/>
<feBlend mode="normal" in="SourceGraphic" in2="effect1_dropShadow_742_5567" result="shape"/>
</filter>
</defs>
</svg>
