<svg width="30" height="30" viewBox="0 0 30 30" fill="none" xmlns="http://www.w3.org/2000/svg">
<path d="M14.955 8.71256C14.955 8.71256 11.1112 9.09506 9.09873 7.41881C7.08623 5.74131 7.54498 2.53756 7.54498 2.53756C7.54498 2.53756 11.3887 2.15506 13.4025 3.83131C15.415 5.50881 14.955 8.71256 14.955 8.71256Z" stroke="white" stroke-width="3" stroke-linecap="round" stroke-linejoin="round"/>
<path d="M15.045 8.71256C15.045 8.71256 18.8887 9.09506 20.9012 7.41881C22.9137 5.74131 22.455 2.53756 22.455 2.53756C22.455 2.53756 18.6112 2.15506 16.5987 3.83131C14.5862 5.50881 15.045 8.71256 15.045 8.71256Z" stroke="white" stroke-width="3" stroke-linecap="round" stroke-linejoin="round"/>
<path d="M5 13.75C5 13.4185 5.1317 13.1005 5.36612 12.8661C5.60054 12.6317 5.91848 12.5 6.25 12.5H23.75C24.0815 12.5 24.3995 12.6317 24.6339 12.8661C24.8683 13.1005 25 13.4185 25 13.75V16.25C25 16.5815 24.8683 16.8995 24.6339 17.1339C24.3995 17.3683 24.0815 17.5 23.75 17.5H6.25C5.91848 17.5 5.60054 17.3683 5.36612 17.1339C5.1317 16.8995 5 16.5815 5 16.25V13.75Z" stroke="white" stroke-width="3" stroke-linecap="round" stroke-linejoin="round"/>
<path d="M6.25 17.5H23.75L21.25 27.5H8.75L6.25 17.5Z" stroke="white" stroke-width="3" stroke-linecap="round" stroke-linejoin="round"/>
</svg>
