<svg width="26" height="26" viewBox="0 0 26 26" fill="none" xmlns="http://www.w3.org/2000/svg">
<path d="M12.8646 21.6666C12.9368 21.6666 13.009 21.6486 13.0812 21.6125C13.1535 21.5763 13.2076 21.5402 13.2437 21.5041L22.1271 12.6208C22.3437 12.4041 22.5017 12.1604 22.601 11.8895C22.7003 11.6187 22.75 11.3479 22.75 11.077C22.75 10.7882 22.7003 10.5128 22.601 10.251C22.5017 9.98919 22.3437 9.75899 22.1271 9.56038L17.5229 4.95621C17.3243 4.73954 17.0941 4.58156 16.8323 4.48225C16.5705 4.38295 16.2951 4.33329 16.0062 4.33329C15.7354 4.33329 15.4646 4.38295 15.1937 4.48225C14.9229 4.58156 14.6792 4.73954 14.4625 4.95621L14.1646 5.25413L16.1687 7.28538C16.4396 7.53815 16.6382 7.82704 16.7646 8.15204C16.891 8.47704 16.9542 8.8201 16.9542 9.18121C16.9542 9.93954 16.6969 10.576 16.1823 11.0906C15.6677 11.6052 15.0312 11.8625 14.2729 11.8625C13.9118 11.8625 13.5642 11.7993 13.2302 11.6729C12.8962 11.5465 12.6028 11.3569 12.35 11.1041L10.3187 9.09996L5.57916 13.8395C5.52499 13.8937 5.48437 13.9524 5.45729 14.0156C5.4302 14.0788 5.41666 14.1465 5.41666 14.2187C5.41666 14.3632 5.47083 14.4941 5.57916 14.6114C5.68749 14.7288 5.81388 14.7875 5.95833 14.7875C6.03055 14.7875 6.10277 14.7694 6.17499 14.7333C6.24722 14.6972 6.30138 14.6611 6.33749 14.625L10.0208 10.9416L11.5375 12.4583L7.88124 16.1416C7.82708 16.1958 7.78645 16.2545 7.75937 16.3177C7.73229 16.3809 7.71874 16.4486 7.71874 16.5208C7.71874 16.6652 7.77291 16.7916 7.88124 16.9C7.98958 17.0083 8.11597 17.0625 8.26041 17.0625C8.33263 17.0625 8.40486 17.0444 8.47708 17.0083C8.5493 16.9722 8.60347 16.9361 8.63958 16.9L12.3229 13.2437L13.8396 14.7604L10.1833 18.4437C10.1292 18.4798 10.0885 18.534 10.0615 18.6062C10.0344 18.6784 10.0208 18.7507 10.0208 18.8229C10.0208 18.9673 10.075 19.0937 10.1833 19.202C10.2917 19.3104 10.4181 19.3645 10.5625 19.3645C10.6347 19.3645 10.7024 19.351 10.7656 19.3239C10.8288 19.2968 10.8875 19.2562 10.9417 19.202L14.625 15.5458L16.1417 17.0625L12.4583 20.7458C12.4042 20.8 12.3635 20.8586 12.3365 20.9218C12.3094 20.985 12.2958 21.0527 12.2958 21.125C12.2958 21.2694 12.3545 21.3958 12.4719 21.5041C12.5892 21.6125 12.7201 21.6666 12.8646 21.6666ZM12.8375 23.8333C12.1694 23.8333 11.5781 23.6121 11.0635 23.1698C10.549 22.7274 10.2465 22.1722 10.1562 21.5041C9.54236 21.4138 9.02777 21.1611 8.61249 20.7458C8.19722 20.3305 7.94444 19.8159 7.85416 19.202C7.24027 19.1118 6.7302 18.8545 6.32395 18.4302C5.9177 18.0059 5.66944 17.4958 5.57916 16.9C4.89305 16.8097 4.33333 16.5118 3.89999 16.0062C3.46666 15.5007 3.24999 14.9048 3.24999 14.2187C3.24999 13.8576 3.3177 13.51 3.45312 13.176C3.58854 12.842 3.78263 12.5486 4.03541 12.2958L10.3187 6.03954L13.8667 9.58746C13.9028 9.64163 13.9569 9.68225 14.0292 9.70933C14.1014 9.73642 14.1736 9.74996 14.2458 9.74996C14.4083 9.74996 14.5437 9.70031 14.6521 9.601C14.7604 9.5017 14.8146 9.37079 14.8146 9.20829C14.8146 9.13607 14.801 9.06385 14.774 8.99163C14.7469 8.9194 14.7062 8.86524 14.6521 8.82913L10.7792 4.95621C10.5806 4.73954 10.3503 4.58156 10.0885 4.48225C9.82673 4.38295 9.55138 4.33329 9.2625 4.33329C8.99166 4.33329 8.72083 4.38295 8.44999 4.48225C8.17916 4.58156 7.93541 4.73954 7.71874 4.95621L3.89999 8.80204C3.73749 8.96454 3.60208 9.15413 3.49374 9.37079C3.38541 9.58746 3.31319 9.80413 3.27708 10.0208C3.24097 10.2375 3.24097 10.4586 3.27708 10.6843C3.31319 10.91 3.38541 11.1222 3.49374 11.3208L1.92291 12.8916C1.61597 12.4763 1.39027 12.0204 1.24583 11.5239C1.10138 11.0274 1.04722 10.5263 1.08333 10.0208C1.11944 9.51524 1.24583 9.02322 1.46249 8.54475C1.67916 8.06628 1.97708 7.63746 2.35624 7.25829L6.17499 3.43954C6.60833 3.02426 7.09131 2.70829 7.62395 2.49163C8.15659 2.27496 8.70277 2.16663 9.2625 2.16663C9.82222 2.16663 10.3684 2.27496 10.901 2.49163C11.4337 2.70829 11.9076 3.02426 12.3229 3.43954L12.6208 3.73746L12.9187 3.43954C13.3521 3.02426 13.8351 2.70829 14.3677 2.49163C14.9003 2.27496 15.4465 2.16663 16.0062 2.16663C16.566 2.16663 17.1121 2.27496 17.6448 2.49163C18.1774 2.70829 18.6514 3.02426 19.0667 3.43954L23.6437 8.01663C24.059 8.4319 24.375 8.91038 24.5917 9.45204C24.8083 9.99371 24.9167 10.5444 24.9167 11.1041C24.9167 11.6638 24.8083 12.21 24.5917 12.7427C24.375 13.2753 24.059 13.7493 23.6437 14.1645L14.7604 23.0208C14.5076 23.2736 14.2142 23.4722 13.8802 23.6166C13.5462 23.7611 13.1986 23.8333 12.8375 23.8333Z" fill="#DCD4E2"/>
</svg>
