<svg width="40" height="40" viewBox="0 0 40 40" fill="none" xmlns="http://www.w3.org/2000/svg">
<path d="M21.25 5.0499V5.99656C21.25 6.55323 21.4967 7.0799 21.925 7.43656L23.705 8.9199C24.4417 9.5349 24.5967 10.6032 24.065 11.4032L23.215 12.6799C22.7521 13.3736 22.0712 13.8932 21.28 14.1566L21.0417 14.2366C20.7727 14.3265 20.5281 14.4772 20.3269 14.6769C20.1257 14.8767 19.9732 15.1202 19.8813 15.3885C19.7894 15.6567 19.7606 15.9425 19.797 16.2238C19.8335 16.505 19.9343 16.774 20.0917 17.0099C20.7067 17.9349 20.3733 19.1882 19.38 19.6849L15 21.8749L15.705 23.6399C15.8472 23.9984 15.8545 24.3963 15.7257 24.7597C15.5968 25.1232 15.3405 25.4276 15.0043 25.6165C14.668 25.8054 14.2747 25.8659 13.8973 25.7868C13.5198 25.7078 13.1838 25.4945 12.9517 25.1866L11.82 23.6766C11.6282 23.421 11.3743 23.2186 11.0823 23.0888C10.7903 22.9589 10.47 22.9058 10.1518 22.9345C9.83351 22.9633 9.52787 23.0728 9.26387 23.2529C8.99987 23.4329 8.78626 23.6774 8.64332 23.9632L7.49999 26.2499L6.47999 26.5049M21.25 5.0499C18.6151 4.82879 15.9685 5.30978 13.5786 6.44098C11.1886 7.57217 9.14008 9.31503 7.64065 11.493C6.14121 13.6709 5.24413 16.2064 5.0403 18.8427C4.83648 21.479 5.33315 24.1224 6.47999 26.5049M21.25 5.0499C23.8628 5.26781 26.3729 6.16844 28.53 7.65884C30.687 9.14923 32.4158 11.179 33.5439 13.5458C34.672 15.9126 35.16 18.5337 34.9593 21.1479C34.7586 23.7621 33.8762 26.278 32.4 28.4449L32.105 27.5632C31.8559 26.8166 31.3782 26.1672 30.7396 25.7072C30.101 25.2471 29.3338 24.9997 28.5467 24.9999H27.5L26.96 24.4599C26.6887 24.1882 26.3568 23.9849 25.9915 23.8667C25.6262 23.7486 25.2381 23.719 24.8591 23.7803C24.4801 23.8417 24.1211 23.9923 23.8118 24.2197C23.5025 24.4471 23.2516 24.7448 23.08 25.0882L23.02 25.2099C22.8563 25.5376 22.6263 25.8277 22.3446 26.0619C22.0628 26.296 21.7355 26.469 21.3833 26.5699L19.7333 27.0399C18.8167 27.3016 18.2433 28.2099 18.4 29.1516L18.5217 29.8816C18.655 30.6716 19.3383 31.2499 20.1383 31.2499C21.5483 31.2499 22.8017 32.1532 23.2467 33.4916L23.605 34.5632M32.3983 28.4466C30.3185 31.4968 27.1882 33.6743 23.605 34.5632C20.2592 35.3922 16.73 35.0435 13.6111 33.5759C10.4923 32.1082 7.974 29.6112 6.47999 26.5049M26.25 14.9999C26.25 16.4932 25.595 17.8332 24.5567 18.7499" stroke="white" stroke-width="2" stroke-linecap="round" stroke-linejoin="round"/>
</svg>
