<svg width="30" height="30" viewBox="0 0 30 30" fill="none" xmlns="http://www.w3.org/2000/svg">
<path d="M14.8438 25C14.9271 25 15.0104 24.9792 15.0938 24.9375C15.1771 24.8958 15.2396 24.8542 15.2813 24.8125L25.5313 14.5625C25.7813 14.3125 25.9635 14.0312 26.0781 13.7188C26.1927 13.4062 26.25 13.0938 26.25 12.7812C26.25 12.4479 26.1927 12.1302 26.0781 11.8281C25.9635 11.526 25.7813 11.2604 25.5313 11.0312L20.2188 5.71875C19.9896 5.46875 19.724 5.28646 19.4219 5.17188C19.1198 5.05729 18.8021 5 18.4688 5C18.1563 5 17.8438 5.05729 17.5313 5.17188C17.2188 5.28646 16.9375 5.46875 16.6875 5.71875L16.3438 6.0625L18.6563 8.40625C18.9688 8.69792 19.1979 9.03125 19.3438 9.40625C19.4896 9.78125 19.5625 10.1771 19.5625 10.5938C19.5625 11.4688 19.2656 12.2031 18.6719 12.7969C18.0781 13.3906 17.3438 13.6875 16.4688 13.6875C16.0521 13.6875 15.651 13.6146 15.2656 13.4688C14.8802 13.3229 14.5417 13.1042 14.25 12.8125L11.9063 10.5L6.4375 15.9688C6.375 16.0312 6.32813 16.099 6.29688 16.1719C6.26563 16.2448 6.25 16.3229 6.25 16.4062C6.25 16.5729 6.3125 16.724 6.4375 16.8594C6.5625 16.9948 6.70834 17.0625 6.875 17.0625C6.95834 17.0625 7.04167 17.0417 7.125 17C7.20834 16.9583 7.27084 16.9167 7.3125 16.875L11.5625 12.625L13.3125 14.375L9.09375 18.625C9.03125 18.6875 8.98438 18.7552 8.95313 18.8281C8.92188 18.901 8.90625 18.9792 8.90625 19.0625C8.90625 19.2292 8.96875 19.375 9.09375 19.5C9.21875 19.625 9.36459 19.6875 9.53125 19.6875C9.61459 19.6875 9.69792 19.6667 9.78125 19.625C9.86459 19.5833 9.92709 19.5417 9.96875 19.5L14.2188 15.2812L15.9688 17.0312L11.75 21.2812C11.6875 21.3229 11.6406 21.3854 11.6094 21.4688C11.5781 21.5521 11.5625 21.6354 11.5625 21.7188C11.5625 21.8854 11.625 22.0312 11.75 22.1562C11.875 22.2812 12.0208 22.3438 12.1875 22.3438C12.2708 22.3438 12.349 22.3281 12.4219 22.2969C12.4948 22.2656 12.5625 22.2188 12.625 22.1562L16.875 17.9375L18.625 19.6875L14.375 23.9375C14.3125 24 14.2656 24.0677 14.2344 24.1406C14.2031 24.2135 14.1875 24.2917 14.1875 24.375C14.1875 24.5417 14.2552 24.6875 14.3906 24.8125C14.526 24.9375 14.6771 25 14.8438 25ZM14.8125 27.5C14.0417 27.5 13.3594 27.2448 12.7656 26.7344C12.1719 26.224 11.8229 25.5833 11.7188 24.8125C11.0104 24.7083 10.4167 24.4167 9.9375 23.9375C9.45834 23.4583 9.16667 22.8646 9.0625 22.1562C8.35417 22.0521 7.76563 21.7552 7.29688 21.2656C6.82813 20.776 6.54167 20.1875 6.4375 19.5C5.64584 19.3958 5 19.0521 4.5 18.4688C4 17.8854 3.75 17.1979 3.75 16.4062C3.75 15.9896 3.82813 15.5885 3.98438 15.2031C4.14063 14.8177 4.36459 14.4792 4.65625 14.1875L11.9063 6.96875L16 11.0625C16.0417 11.125 16.1042 11.1719 16.1875 11.2031C16.2708 11.2344 16.3542 11.25 16.4375 11.25C16.625 11.25 16.7813 11.1927 16.9063 11.0781C17.0313 10.9635 17.0938 10.8125 17.0938 10.625C17.0938 10.5417 17.0781 10.4583 17.0469 10.375C17.0156 10.2917 16.9688 10.2292 16.9063 10.1875L12.4375 5.71875C12.2083 5.46875 11.9427 5.28646 11.6406 5.17188C11.3385 5.05729 11.0208 5 10.6875 5C10.375 5 10.0625 5.05729 9.75 5.17188C9.4375 5.28646 9.15625 5.46875 8.90625 5.71875L4.5 10.1562C4.3125 10.3438 4.15625 10.5625 4.03125 10.8125C3.90625 11.0625 3.82292 11.3125 3.78125 11.5625C3.73959 11.8125 3.73959 12.0677 3.78125 12.3281C3.82292 12.5885 3.90625 12.8333 4.03125 13.0625L2.21875 14.875C1.86459 14.3958 1.60417 13.8698 1.4375 13.2969C1.27084 12.724 1.20834 12.1458 1.25 11.5625C1.29167 10.9792 1.4375 10.4115 1.6875 9.85938C1.9375 9.30729 2.28125 8.8125 2.71875 8.375L7.125 3.96875C7.625 3.48958 8.18229 3.125 8.79688 2.875C9.41146 2.625 10.0417 2.5 10.6875 2.5C11.3333 2.5 11.9635 2.625 12.5781 2.875C13.1927 3.125 13.7396 3.48958 14.2188 3.96875L14.5625 4.3125L14.9063 3.96875C15.4063 3.48958 15.9635 3.125 16.5781 2.875C17.1927 2.625 17.8229 2.5 18.4688 2.5C19.1146 2.5 19.7448 2.625 20.3594 2.875C20.974 3.125 21.5208 3.48958 22 3.96875L27.2813 9.25C27.7604 9.72917 28.125 10.2812 28.375 10.9062C28.625 11.5312 28.75 12.1667 28.75 12.8125C28.75 13.4583 28.625 14.0885 28.375 14.7031C28.125 15.3177 27.7604 15.8646 27.2813 16.3438L17.0313 26.5625C16.7396 26.8542 16.401 27.0833 16.0156 27.25C15.6302 27.4167 15.2292 27.5 14.8125 27.5Z" fill="white"/>
</svg>
