<svg width="40" height="40" viewBox="0 0 40 40" fill="none" xmlns="http://www.w3.org/2000/svg">
<path d="M34.8217 22.3215L32.93 20.4299C32.6453 20.1447 32.4084 19.8154 32.2283 19.4549L30.4283 15.8549C30.3793 15.7572 30.3078 15.6725 30.2197 15.6078C30.1316 15.5432 30.0294 15.5004 29.9215 15.483C29.8136 15.4656 29.7031 15.474 29.5991 15.5077C29.4951 15.5413 29.4006 15.5992 29.3233 15.6765C29.1495 15.8503 28.9323 15.9743 28.6943 16.0358C28.4564 16.0974 28.2063 16.0942 27.97 16.0265L25.8483 15.4215C25.5089 15.3261 25.1465 15.3547 24.8263 15.5023C24.506 15.6498 24.2488 15.9066 24.1007 16.2266C23.9526 16.5467 23.9234 16.909 24.0182 17.2486C24.1131 17.5882 24.3259 17.8829 24.6183 18.0799L25.5967 18.7299C26.58 19.3882 26.72 20.7799 25.8833 21.6165L25.55 21.9499C25.1967 22.3032 25 22.7799 25 23.2765V23.9599C25 24.6415 24.8167 25.3082 24.4667 25.8899L22.275 29.5415C21.9626 30.0626 21.5205 30.4939 20.9918 30.7933C20.4631 31.0927 19.8659 31.25 19.2583 31.2499C18.792 31.2499 18.3448 31.0646 18.015 30.7349C17.6853 30.4051 17.5 29.9579 17.5 29.4915V27.5382C17.5 26.0049 16.5667 24.6265 15.1433 24.0565L14.0517 23.6215C13.2574 23.3036 12.5957 22.7236 12.1765 21.9778C11.7572 21.2321 11.6055 20.3654 11.7467 19.5215L11.7583 19.4515C11.8358 18.9879 11.9998 18.5429 12.2417 18.1399L12.3917 17.8899C12.7897 17.2271 13.3829 16.7035 14.09 16.3908C14.7971 16.0781 15.5835 15.9917 16.3417 16.1432L18.305 16.5365C18.767 16.6287 19.2468 16.5436 19.6489 16.298C20.051 16.0525 20.3459 15.6646 20.475 15.2115L20.8217 13.9949C20.9418 13.5746 20.9112 13.1255 20.7353 12.7253C20.5594 12.3251 20.2492 11.9989 19.8583 11.8032L18.75 11.2499L18.5983 11.4015C18.2501 11.7498 17.8367 12.026 17.3817 12.2144C16.9268 12.4029 16.4391 12.4999 15.9467 12.4999H15.6467C15.2317 12.4999 14.835 12.6665 14.5433 12.9565C14.276 13.2263 13.9191 13.3886 13.5401 13.4128C13.1612 13.437 12.7865 13.3214 12.487 13.0879C12.1876 12.8544 11.9841 12.5192 11.9153 12.1457C11.8464 11.7723 11.9169 11.3865 12.1133 11.0615L14.465 7.13988C14.6994 6.75006 14.8609 6.32085 14.9417 5.87321M34.8217 22.3215C35.2254 19.7501 34.953 17.1179 34.0313 14.6836C33.1096 12.2493 31.5703 10.0968 29.5647 8.43756C27.5591 6.77836 25.1563 5.66961 22.5925 5.22029C20.0286 4.77097 17.3919 4.99656 14.9417 5.87488C12.4489 6.76844 10.2371 8.306 8.531 10.3313C6.82495 12.3566 5.68546 14.7975 5.22835 17.4058C4.77123 20.0142 5.01278 22.6971 5.92845 25.1818C6.84412 27.6666 8.40126 29.8647 10.4416 31.5527C12.482 33.2407 14.9329 34.3584 17.5452 34.7924C20.1575 35.2263 22.8382 34.9609 25.3147 34.0232C27.7912 33.0855 29.9754 31.5089 31.6452 29.4536C33.315 27.3983 34.411 24.9376 34.8217 22.3215Z" stroke="white" stroke-width="2" stroke-linecap="round" stroke-linejoin="round"/>
</svg>
