<svg width="30" height="30" viewBox="0 0 30 30" fill="none" xmlns="http://www.w3.org/2000/svg">
<path d="M2.8125 18.75C2.8125 20.2419 3.40513 21.6726 4.46002 22.7275C5.51492 23.7824 6.94566 24.375 8.4375 24.375H22.5C23.5973 24.3762 24.6602 23.9924 25.5036 23.2905C26.347 22.5886 26.9175 21.613 27.1156 20.5338C27.3136 19.4545 27.1268 18.34 26.5877 17.3843C26.0485 16.4286 25.1912 15.6923 24.165 15.3038C24.397 14.6441 24.4398 13.9326 24.2888 13.2499C24.1377 12.5671 23.7987 11.9401 23.3101 11.4398C22.8215 10.9395 22.2028 10.5858 21.5238 10.4186C20.8448 10.2515 20.1325 10.2775 19.4675 10.4938C19.0374 8.8438 17.9819 7.42602 16.5247 6.54067C15.0675 5.65531 13.3228 5.37191 11.6603 5.75046C9.99771 6.12902 8.54776 7.13981 7.61748 8.5688C6.6872 9.99778 6.34963 11.7327 6.67625 13.4063C5.55198 13.7773 4.57337 14.4935 3.87968 15.4529C3.18598 16.4123 2.81254 17.5661 2.8125 18.75Z" stroke="white" stroke-width="2.5" stroke-linecap="round" stroke-linejoin="round"/>
</svg>
