<svg width="40" height="40" viewBox="0 0 40 40" fill="none" xmlns="http://www.w3.org/2000/svg">
<path d="M10.1923 8.65002L10.7239 11.8384C11.0664 13.8947 12.0431 15.7926 13.5173 17.2667L16.2506 20L15.6056 21.2917C15.2439 22.0133 15.3856 22.885 15.9556 23.455L18.2023 25.7017C18.5523 26.0517 18.7506 26.53 18.7506 27.0267V28.8417C18.7506 29.5517 19.1506 30.2 19.7873 30.5184L20.0423 30.645C20.7639 31.0067 21.6356 30.865 22.2056 30.295L23.4106 29.09C25.2687 27.2315 26.5868 24.903 27.2239 22.3533C27.3068 22.0228 27.2948 21.6756 27.1892 21.3516C27.0837 21.0276 26.8889 20.74 26.6273 20.5217L24.4106 18.675C23.9923 18.325 23.4406 18.1767 22.9023 18.2667L20.9523 18.5917C20.658 18.6407 20.3563 18.6187 20.0722 18.5277C19.7882 18.4367 19.5299 18.2792 19.3189 18.0683L18.8273 17.5767C18.6531 17.4026 18.515 17.1959 18.4208 16.9684C18.3266 16.7409 18.2781 16.4971 18.2781 16.2509C18.2781 16.0046 18.3266 15.7608 18.4208 15.5333C18.515 15.3058 18.6531 15.0991 18.8273 14.925L19.0439 14.705C19.3225 14.4264 19.6818 14.2427 20.0707 14.1799C20.4596 14.1171 20.8585 14.1783 21.2106 14.355L22.2156 14.8584C22.4688 14.9855 22.7557 15.0297 23.0355 14.9845C23.3152 14.9393 23.5737 14.8072 23.774 14.6068C23.9744 14.4064 24.1066 14.148 24.1517 13.8682C24.1969 13.5885 24.1528 13.3016 24.0256 13.0484L23.7506 12.5L25.8439 11.105C26.9295 10.3807 27.8073 9.38575 28.3906 8.21835L28.6339 7.73168M10.1923 8.65002C7.82911 10.6922 6.16237 13.421 5.42455 16.4559C4.68674 19.4908 4.91466 22.6803 6.07652 25.5794C7.23838 28.4785 9.27622 30.9427 11.9057 32.628C14.5352 34.3134 17.6253 35.1359 20.7447 34.9809C23.8641 34.8258 26.8573 33.7009 29.3067 31.7631C31.7561 29.8253 33.5396 27.1712 34.4082 24.1711C35.2768 21.1711 35.1874 17.9747 34.1522 15.028C33.1171 12.0812 31.1879 9.52942 28.6339 7.73168M10.1923 8.65002C12.9148 6.2907 16.398 4.99446 20.0006 5.00002C23.2156 5.00002 26.1939 6.01002 28.6339 7.73168" stroke="white" stroke-width="2" stroke-linecap="round" stroke-linejoin="round"/>
</svg>
