<svg width="26" height="26" viewBox="0 0 26 26" fill="none" xmlns="http://www.w3.org/2000/svg">
<path d="M23.0626 15.4375V20.75C23.0626 22.1175 22.0788 23.295 20.7226 23.475C18.1138 23.8212 15.4526 24 12.7501 24C10.0476 24 7.38632 23.8212 4.77757 23.475C3.42132 23.295 2.43757 22.1175 2.43757 20.75V15.4375M23.0626 15.4375C23.3594 15.1796 23.5969 14.8604 23.7587 14.502C23.9205 14.1436 24.0029 13.7545 24.0001 13.3613V8.6325C24.0001 7.28125 23.0401 6.11375 21.7038 5.91375C20.2879 5.70177 18.865 5.54042 17.4376 5.43M23.0626 15.4375C22.8201 15.6437 22.5376 15.8062 22.2213 15.9125C19.1666 16.9261 15.9686 17.441 12.7501 17.4375C9.44007 17.4375 6.25632 16.9012 3.27882 15.9125C2.97039 15.8099 2.68473 15.6486 2.43757 15.4375M2.43757 15.4375C2.14075 15.1796 1.90327 14.8604 1.74144 14.502C1.57962 14.1436 1.49727 13.7545 1.50007 13.3613V8.6325C1.50007 7.28125 2.46007 6.11375 3.79632 5.91375C5.21219 5.70177 6.63518 5.54042 8.06257 5.43M17.4376 5.43V4.3125C17.4376 3.56658 17.1413 2.85121 16.6138 2.32376C16.0864 1.79632 15.371 1.5 14.6251 1.5H10.8751C10.1291 1.5 9.41378 1.79632 8.88633 2.32376C8.35889 2.85121 8.06257 3.56658 8.06257 4.3125V5.43M17.4376 5.43C14.3172 5.18885 11.1829 5.18885 8.06257 5.43M12.7501 13.6875H12.7601V13.6975H12.7501V13.6875Z" stroke="white" stroke-width="3" stroke-linecap="round" stroke-linejoin="round"/>
</svg>
